HIERARCHY
ROOT Hips
{
	OFFSET 0.000000 0.000000 0.000000
	CHANNELS 6 Xposition Yposition Zposition Zrotation Yrotation Xrotation 
	JOINT LHipJoint
	{
		OFFSET 0.000000 0.000000 0.000000
		CHANNELS 3 Zrotation Yrotation Xrotation
		JOINT LeftUpLeg
		{
			OFFSET 1.363060 -1.794630 0.839290
			CHANNELS 3 Zrotation Yrotation Xrotation
			JOINT LeftLeg
			{
				OFFSET 2.448110 -6.726130 0.000000
				CHANNELS 3 Zrotation Yrotation Xrotation
				JOINT LeftFoot
				{
					OFFSET 2.562200 -7.039590 0.000000
					CHANNELS 3 Zrotation Yrotation Xrotation
					JOINT LeftToeBase
					{
						OFFSET 0.157640 -0.433110 2.322550
						CHANNELS 3 Zrotation Yrotation Xrotation
						End Site
						{
							OFFSET 0.000000 0.000000 0.000000
						}
					}
				}
			}
		}
	}
	JOINT RHipJoint
	{
		OFFSET 0.000000 0.000000 0.000000
		CHANNELS 3 Zrotation Yrotation Xrotation
		JOINT RightUpLeg
		{
			OFFSET -1.305520 -1.794630 0.839290
			CHANNELS 3 Zrotation Yrotation Xrotation
			JOINT RightLeg
			{
				OFFSET -2.542530 -6.985550 0.000000
				CHANNELS 3 Zrotation Yrotation Xrotation
				JOINT RightFoot
				{
					OFFSET -2.568260 -7.056230 0.000000
					CHANNELS 3 Zrotation Yrotation Xrotation
					JOINT RightToeBase
					{
						OFFSET -0.164730 -0.452590 2.363150
						CHANNELS 3 Zrotation Yrotation Xrotation
						End Site
						{
							OFFSET 0.000000 0.000000 0.000000
						}
					}
				}
			}
		}
	}
	JOINT LowerBack
	{
		OFFSET 0.000000 0.000000 0.000000
		CHANNELS 3 Zrotation Yrotation Xrotation
		JOINT Spine
		{
			OFFSET 0.028270 2.035590 -0.193380
			CHANNELS 3 Zrotation Yrotation Xrotation
			JOINT Spine1
			{
				OFFSET 0.056720 2.048850 -0.042750
				CHANNELS 3 Zrotation Yrotation Xrotation
				JOINT Neck
				{
					OFFSET 0.000000 0.000000 0.000000
					CHANNELS 3 Zrotation Yrotation Xrotation
					JOINT Neck1
					{
						OFFSET -0.054170 1.746240 0.172020
						CHANNELS 3 Zrotation Yrotation Xrotation
						JOINT Head
						{
							OFFSET 0.104070 1.761360 -0.123970
							CHANNELS 3 Zrotation Yrotation Xrotation
							End Site
							{
								OFFSET 0.000000 0.000000 0.000000
							}
						}
					}
				}
				JOINT LeftShoulder
				{
					OFFSET 0.000000 0.000000 0.000000
					CHANNELS 3 Zrotation Yrotation Xrotation
					JOINT LeftArm
					{
						OFFSET 3.362410 1.200890 -0.311210
						CHANNELS 3 Zrotation Yrotation Xrotation
						JOINT LeftForeArm
						{
							OFFSET 4.983000 -0.000000 -0.000000
							CHANNELS 3 Zrotation Yrotation Xrotation
							JOINT LeftHand
							{
								OFFSET 3.483560 -0.000000 -0.000000
								CHANNELS 3 Zrotation Yrotation Xrotation
								JOINT LeftFingerBase
								{
									OFFSET 0.000000 0.000000 0.000000
									CHANNELS 3 Zrotation Yrotation Xrotation
									JOINT LeftHandIndex1
									{
										OFFSET 0.715260 -0.000000 -0.000000
										CHANNELS 3 Zrotation Yrotation Xrotation
										End Site
										{
											OFFSET 0.000000 0.000000 0.000000
										}
									}
								}
								JOINT LThumb
								{
									OFFSET 0.000000 0.000000 0.000000
									CHANNELS 3 Zrotation Yrotation Xrotation
									End Site
									{
										OFFSET 0.000000 0.000000 0.000000
									}
								}
							}
						}
					}
				}
				JOINT RightShoulder
				{
					OFFSET 0.000000 0.000000 0.000000
					CHANNELS 3 Zrotation Yrotation Xrotation
					JOINT RightArm
					{
						OFFSET -3.136600 1.374050 -0.404650
						CHANNELS 3 Zrotation Yrotation Xrotation
						JOINT RightForeArm
						{
							OFFSET -5.241900 -0.000000 -0.000000
							CHANNELS 3 Zrotation Yrotation Xrotation
							JOINT RightHand
							{
								OFFSET -3.444170 -0.000000 -0.000000
								CHANNELS 3 Zrotation Yrotation Xrotation
								JOINT RightFingerBase
								{
									OFFSET 0.000000 0.000000 0.000000
									CHANNELS 3 Zrotation Yrotation Xrotation
									JOINT RightHandIndex1
									{
										OFFSET -0.622530 -0.000000 -0.000000
										CHANNELS 3 Zrotation Yrotation Xrotation
										End Site
										{
											OFFSET 0.000000 0.000000 0.000000
										}
									}
								}
								JOINT RThumb
								{
									OFFSET 0.000000 0.000000 0.000000
									CHANNELS 3 Zrotation Yrotation Xrotation
									End Site
									{
										OFFSET 0.000000 0.000000 0.000000
									}
								}
							}
						}
					}
				}
			}
		}
	}
}
MOTION
Frames: 8
Frame Time: 0.008333
-41.262449 16.104480 16.683328 0.122309 55.589991 -10.634265 -0.037860 -9.344896 -11.536587 -2.223442 14.714697 -32.417941 1.944493 9.328409 17.970560 7.328889 6.185131 63.499681 2.680600 -10.159100 -29.493600 -4.255899 -6.775438 6.920675 -14.272522 12.479770 -5.351654 -5.899887 -14.931034 45.172899 -13.562053 19.096035 23.192797 -5.440300 13.863100 -42.691700 25.057601 17.651944 41.659937 -3.020842 -14.448353 10.867153 -0.232604 23.238736 3.535434 -6.237222 -12.115377 -7.575493 4.259668 -15.983510 4.905722 5.200000 -5.574500 -3.523600 -3.864515 3.416665 -3.717949 -54.520633 36.384397 83.111370 13.152452 -41.693845 -9.676399 2.838919 -7.338780 -22.023125 3.023651 21.497387 1.574200 -7.125000 0.000000 0.000000 -30.100400 56.712000 -9.216100 7.019817 14.088278 7.547689 13.226924 27.491951 -54.742694 2.089994 3.851635 -2.166828 -5.971686 -3.947390 55.978471 -8.971479 20.205837 -4.175500 7.125000 0.000000 0.000000 12.576700 -2.858300 12.236600 
-40.503169 16.120555 16.538134 0.495140 54.234364 -9.798556 0.446990 -9.038474 -11.995050 -0.527645 12.526964 -29.925380 1.828025 9.038240 16.082194 7.735020 7.096630 64.406318 3.280400 -11.135800 -32.739100 -4.712572 -7.295213 7.477546 -15.231663 13.635436 -4.261327 -4.579591 -13.778454 41.268801 -12.685037 15.405249 26.422330 -6.135900 14.558800 -45.524900 23.832718 18.271097 40.477799 -2.920921 -14.493932 11.134606 0.697009 22.893437 3.425254 -7.326754 -11.860268 -6.907882 4.522851 -15.964717 5.172248 5.691100 -5.562400 -3.292400 -3.430778 3.353361 -3.902320 -59.092896 37.739925 80.816310 14.351368 -42.624216 -9.927869 2.547343 -7.183757 -21.862803 4.132424 22.176455 2.245700 -7.125000 0.000000 0.000000 -29.170000 57.347900 -9.355600 6.883205 13.786167 7.578787 14.265064 26.937827 -39.145692 0.939043 7.101532 -2.576956 -4.628888 -4.008065 34.607120 -5.035760 20.089464 -1.587400 7.125000 0.000000 0.000000 15.741500 -4.684400 14.992500 
-39.732572 16.098178 16.391911 0.746052 52.980137 -9.078901 0.671849 -8.518617 -12.215302 1.014594 10.516831 -27.906563 2.058151 9.317588 15.330468 7.792520 9.378471 64.661704 3.412300 -11.334300 -33.415800 -5.288575 -7.910999 8.092740 -16.146340 15.037066 -3.161907 -3.245203 -12.646044 37.551833 -12.023450 12.928152 30.513635 -6.235100 14.652300 -45.918000 22.923463 18.841554 39.472287 -2.635194 -14.760525 11.251182 0.873620 22.668029 3.178579 -7.674300 -11.786853 -6.450532 4.741767 -16.098873 5.361219 5.913000 -5.666100 -3.156500 -3.110210 3.347921 -3.970816 -63.215458 38.263063 78.875986 15.214208 -42.877660 -9.829567 2.145495 -7.122872 -22.049153 6.022775 22.583291 3.401500 -7.125000 0.000000 0.000000 -27.080500 57.994400 -9.044300 6.779419 13.611521 7.382461 14.917747 25.854426 -25.975083 -0.682752 10.141439 -3.179440 -4.095942 -3.242798 18.862031 -0.493146 19.483337 0.909500 7.125000 0.000000 0.000000 19.249100 -7.136300 17.769100 
-38.947442 16.058054 16.244016 0.341372 51.627528 -8.832516 0.638802 -7.894543 -12.307333 2.967026 7.941436 -25.554054 2.479529 9.904334 14.707306 7.779224 13.242011 64.908032 3.203300 -11.017100 -32.337700 -5.723465 -8.556699 8.724067 -16.802161 16.089043 -2.472504 -2.217755 -11.651829 34.005014 -10.876238 9.198930 34.628756 -6.504300 14.899800 -46.973500 22.385528 19.330057 38.304898 -2.224978 -15.149918 11.343051 0.681362 22.460797 2.926420 -7.815898 -11.643148 -6.214233 4.898232 -16.066967 5.560517 6.063700 -5.707700 -2.930300 -2.937401 3.455059 -3.937980 -67.351862 38.067792 77.012204 15.348474 -42.178265 -9.173600 1.661637 -7.022665 -22.248548 8.211062 22.288667 4.649500 -7.125000 0.000000 0.000000 -23.986500 58.033000 -7.948200 6.620434 13.366761 7.018096 15.688256 24.621375 -13.761601 -2.635284 13.089179 -3.937660 -3.490786 -2.853206 11.623839 -0.255776 19.221547 0.971300 7.125000 0.000000 0.000000 19.470900 -8.239500 17.553100 
-38.168871 16.020501 16.083646 -0.487302 50.076331 -8.514566 1.016074 -7.476421 -11.583881 4.638168 6.015410 -24.889594 1.842678 9.804047 15.687343 7.631437 9.181402 63.178698 7.273500 -15.558000 -49.901400 -5.993326 -9.031153 8.958842 -17.221745 16.289931 -2.427696 -1.696675 -10.880892 30.837954 -9.213663 4.167612 38.449314 -6.847500 15.202200 -48.295300 21.560049 19.319426 36.266455 -1.863600 -15.250002 11.020327 0.872180 21.828633 3.177560 -8.372730 -11.185416 -5.764549 5.023842 -15.766805 5.745525 6.488800 -5.519400 -3.022500 -2.621911 3.610637 -3.595107 -71.991886 37.918890 74.693014 15.644513 -41.774305 -8.734341 1.286366 -6.820389 -22.227612 9.783996 22.134985 5.489900 -7.125000 0.000000 0.000000 -21.752900 57.976800 -7.128900 6.119828 12.858973 6.520759 16.490509 23.933791 -2.986086 -4.809766 16.046736 -5.002700 -3.472356 -2.457906 8.992531 -0.026048 20.164560 1.158100 7.125000 0.000000 0.000000 19.701600 -7.865900 17.944300 
-37.397502 15.916075 15.921219 -1.043209 48.229907 -7.791543 1.156904 -7.419994 -10.276273 6.611945 3.241407 -25.333755 0.555033 9.899496 18.634704 7.788503 1.356092 58.510583 7.188600 -15.488700 -49.584200 -6.373182 -9.429699 8.772409 -17.681708 15.579738 -3.058348 -1.757464 -10.353824 28.222881 -7.337651 -1.640293 41.822403 -7.027700 15.355200 -48.979100 20.655791 19.333633 35.141288 -1.521728 -15.823626 10.273919 0.691685 21.404379 2.689862 -8.505977 -10.865786 -5.515552 5.167172 -15.429242 5.744234 6.635900 -5.365300 -3.012900 -2.116876 3.695262 -3.308567 -76.358672 37.619839 72.911308 16.222873 -41.385121 -8.441320 0.970169 -6.602190 -21.778086 10.717933 22.249916 5.993800 -7.125000 0.000000 0.000000 -20.496800 58.023200 -6.716500 5.590790 12.850204 6.096380 16.871718 23.111770 6.283011 -7.200311 18.754349 -6.317526 -3.605722 -2.123121 8.089565 -0.085694 21.480812 1.269900 7.125000 0.000000 0.000000 19.742200 -6.969100 18.354900 
-36.652112 15.792229 15.740658 -1.488169 46.478165 -7.739405 0.990742 -6.596339 -10.329733 5.315706 5.295353 -27.682889 2.472833 12.150262 22.399420 5.908976 7.479871 56.725966 5.006400 -13.391000 -40.850200 -6.631535 -10.063676 8.801658 -18.134903 13.973050 -4.037395 -2.265443 -10.097761 26.088788 -5.471458 -7.868254 44.634680 -7.041300 15.366500 -49.030200 19.856660 18.683925 34.387136 -1.012737 -16.290031 9.792672 0.574377 20.683522 2.308813 -9.079540 -10.288289 -4.969347 5.365555 -14.944763 5.659296 7.221200 -5.020600 -3.334000 -1.745371 3.603277 -2.786529 -81.004280 36.669263 71.158215 16.735355 -40.858307 -8.122877 0.751775 -6.349916 -20.812238 11.010238 22.650737 6.159700 -7.125000 0.000000 0.000000 -20.277800 58.191100 -6.723400 4.739397 12.707726 5.745866 16.802207 22.998513 13.900575 -9.637126 21.178954 -7.659421 -3.640482 -1.810085 5.496216 0.287548 22.584008 1.534400 7.125000 0.000000 0.000000 20.029000 -6.389200 18.898800 
-35.974238 15.739887 15.516372 -1.870678 45.045397 -8.107940 1.232550 -6.434772 -10.557522 3.851761 7.156545 -31.111592 4.596040 14.522967 27.884566 4.855566 9.635449 55.965087 0.964600 -6.253400 -17.521400 -6.770448 -10.790078 8.923730 -18.159722 11.701798 -5.251036 -3.013456 -10.081061 24.508111 -3.785985 -13.944228 46.505238 -7.136900 15.446100 -49.390100 20.319682 18.334849 35.321160 -0.023312 -17.128939 9.355971 -2.287020 20.719281 1.977834 -7.151823 -10.723893 -6.230902 5.650910 -15.536690 5.156994 7.337000 -5.140100 -3.506900 -2.124286 3.981408 -2.362174 -81.143212 32.824153 72.903096 17.303290 -40.208458 -8.206146 0.919760 -6.357708 -20.285201 9.864029 23.316011 5.611900 -7.125000 0.000000 0.000000 -22.226500 58.594500 -7.628300 3.963564 12.725771 5.387727 16.270832 23.019927 17.305898 -11.718416 22.888693 -9.017741 -3.367972 -1.672175 0.196204 0.398149 23.304420 1.562100 7.125000 0.000000 0.000000 20.032800 -6.150700 19.000800 
